<svg xmlns="http://www.w3.org/2000/svg" xmlns:xlink="http://www.w3.org/1999/xlink" width="472" zoomAndPan="magnify" viewBox="0 0 354 308.250004" height="411" preserveAspectRatio="xMidYMid meet" version="1.0"><defs><g/><clipPath id="9e6d5cbfad"><path d="M 37.886719 38.113281 L 316 38.113281 L 316 270 L 37.886719 270 Z M 37.886719 38.113281 " clip-rule="nonzero"/></clipPath><clipPath id="1e0696458d"><path d="M 56.71875 53.859375 L 297.261719 53.859375 L 297.261719 254.347656 L 56.71875 254.347656 Z M 56.71875 53.859375 " clip-rule="nonzero"/></clipPath></defs><g clip-path="url(#9e6d5cbfad)"><path fill="#212529" d="M 37.886719 38.113281 L 315.839844 38.113281 L 315.839844 269.964844 L 37.886719 269.964844 Z M 37.886719 38.113281 " fill-opacity="1" fill-rule="nonzero"/></g><g clip-path="url(#1e0696458d)"><path fill="#efefef" d="M 56.71875 53.859375 L 297.382812 53.859375 L 297.382812 254.527344 L 56.71875 254.527344 Z M 56.71875 53.859375 " fill-opacity="1" fill-rule="nonzero"/></g><g fill="#f66b0e" fill-opacity="1"><g transform="translate(116.38567, 210.379771)"><g><path d="M 7.785156 -24.601562 L 7.785156 0 L 112.113281 0 L 112.113281 -64.464844 L 32.386719 -64.464844 L 32.386719 -79.726562 L 112.113281 -79.726562 L 112.113281 -104.328125 L 7.785156 -104.328125 L 7.785156 -39.863281 L 87.511719 -39.863281 L 87.511719 -24.601562 Z M 7.785156 -24.601562 "/></g></g></g></svg>