<svg xmlns="http://www.w3.org/2000/svg" xmlns:xlink="http://www.w3.org/1999/xlink" width="1079" zoomAndPan="magnify" viewBox="0 0 809.25 308.250004" height="411" preserveAspectRatio="xMidYMid meet" version="1.0"><defs><g/><clipPath id="96ef91da8e"><path d="M 38.371094 37.507812 L 769.78125 37.507812 L 769.78125 269.488281 L 38.371094 269.488281 Z M 38.371094 37.507812 " clip-rule="nonzero"/></clipPath><clipPath id="a18c919e82"><path d="M 56.554688 53.253906 L 297.101562 53.253906 L 297.101562 253.742188 L 56.554688 253.742188 Z M 56.554688 53.253906 " clip-rule="nonzero"/></clipPath></defs><g clip-path="url(#96ef91da8e)"><path fill="#212529" d="M 38.371094 37.507812 L 769.855469 37.507812 L 769.855469 269.359375 L 38.371094 269.359375 Z M 38.371094 37.507812 " fill-opacity="1" fill-rule="nonzero"/></g><g clip-path="url(#a18c919e82)"><path fill="#efefef" d="M 56.554688 53.253906 L 297.21875 53.253906 L 297.21875 253.921875 L 56.554688 253.921875 Z M 56.554688 53.253906 " fill-opacity="1" fill-rule="nonzero"/></g><g fill="#efefef" fill-opacity="1"><g transform="translate(347.348792, 189.979951)"><g><path d="M 48.65625 -18.859375 C 48.65625 -12.734375 46.445312 -7.90625 42.03125 -4.375 C 37.613281 -0.84375 31.472656 0.921875 23.609375 0.921875 C 16.359375 0.921875 9.945312 -0.4375 4.375 -3.15625 L 4.375 -16.546875 C 8.957031 -14.492188 12.832031 -13.050781 16 -12.21875 C 19.175781 -11.382812 22.082031 -10.96875 24.71875 -10.96875 C 27.882812 -10.96875 30.3125 -11.570312 32 -12.78125 C 33.6875 -13.988281 34.53125 -15.785156 34.53125 -18.171875 C 34.53125 -19.503906 34.15625 -20.6875 33.40625 -21.71875 C 32.664062 -22.757812 31.570312 -23.757812 30.125 -24.71875 C 28.6875 -25.675781 25.753906 -27.210938 21.328125 -29.328125 C 17.179688 -31.273438 14.066406 -33.144531 11.984375 -34.9375 C 9.910156 -36.738281 8.253906 -38.832031 7.015625 -41.21875 C 5.773438 -43.601562 5.15625 -46.390625 5.15625 -49.578125 C 5.15625 -55.585938 7.191406 -60.3125 11.265625 -63.75 C 15.335938 -67.195312 20.96875 -68.921875 28.15625 -68.921875 C 31.6875 -68.921875 35.054688 -68.5 38.265625 -67.65625 C 41.472656 -66.820312 44.828125 -65.644531 48.328125 -64.125 L 43.6875 -52.9375 C 40.0625 -54.414062 37.0625 -55.445312 34.6875 -56.03125 C 32.320312 -56.625 29.992188 -56.921875 27.703125 -56.921875 C 24.972656 -56.921875 22.878906 -56.285156 21.421875 -55.015625 C 19.960938 -53.742188 19.234375 -52.085938 19.234375 -50.046875 C 19.234375 -48.773438 19.523438 -47.664062 20.109375 -46.71875 C 20.703125 -45.78125 21.640625 -44.867188 22.921875 -43.984375 C 24.210938 -43.097656 27.257812 -41.507812 32.0625 -39.21875 C 38.414062 -36.1875 42.769531 -33.144531 45.125 -30.09375 C 47.476562 -27.039062 48.65625 -23.296875 48.65625 -18.859375 Z M 48.65625 -18.859375 "/></g></g><g transform="translate(399.766367, 189.979951)"><g><path d="M 37.40625 -56.921875 C 31.988281 -56.921875 27.789062 -54.882812 24.8125 -50.8125 C 21.84375 -46.738281 20.359375 -41.0625 20.359375 -33.78125 C 20.359375 -18.632812 26.039062 -11.0625 37.40625 -11.0625 C 42.175781 -11.0625 47.957031 -12.253906 54.75 -14.640625 L 54.75 -2.5625 C 49.164062 -0.238281 42.9375 0.921875 36.0625 0.921875 C 26.175781 0.921875 18.613281 -2.070312 13.375 -8.0625 C 8.144531 -14.0625 5.53125 -22.664062 5.53125 -33.875 C 5.53125 -40.9375 6.816406 -47.125 9.390625 -52.4375 C 11.960938 -57.75 15.65625 -61.820312 20.46875 -64.65625 C 25.289062 -67.5 30.9375 -68.921875 37.40625 -68.921875 C 44.007812 -68.921875 50.640625 -67.320312 57.296875 -64.125 L 52.65625 -52.421875 C 50.113281 -53.628906 47.554688 -54.679688 44.984375 -55.578125 C 42.410156 -56.472656 39.882812 -56.921875 37.40625 -56.921875 Z M 37.40625 -56.921875 "/></g></g><g transform="translate(460.40904, 189.979951)"><g><path d="M 64.921875 -34.625 C 64.921875 -23.4375 61.734375 -14.867188 55.359375 -8.921875 C 48.992188 -2.972656 39.804688 0 27.796875 0 L 8.546875 0 L 8.546875 -67.9375 L 29.875 -67.9375 C 40.96875 -67.9375 49.582031 -65.007812 55.71875 -59.15625 C 61.851562 -53.300781 64.921875 -45.125 64.921875 -34.625 Z M 49.953125 -34.25 C 49.953125 -48.84375 43.507812 -56.140625 30.625 -56.140625 L 22.953125 -56.140625 L 22.953125 -11.890625 L 29.140625 -11.890625 C 43.015625 -11.890625 49.953125 -19.34375 49.953125 -34.25 Z M 49.953125 -34.25 "/></g></g><g transform="translate(530.856775, 189.979951)"><g><path d="M 70.21875 -34.0625 C 70.21875 -22.8125 67.425781 -14.164062 61.84375 -8.125 C 56.269531 -2.09375 48.28125 0.921875 37.875 0.921875 C 27.46875 0.921875 19.472656 -2.09375 13.890625 -8.125 C 8.316406 -14.164062 5.53125 -22.84375 5.53125 -34.15625 C 5.53125 -45.46875 8.328125 -54.101562 13.921875 -60.0625 C 19.515625 -66.03125 27.53125 -69.015625 37.96875 -69.015625 C 48.40625 -69.015625 56.390625 -66.007812 61.921875 -60 C 67.453125 -53.988281 70.21875 -45.34375 70.21875 -34.0625 Z M 20.640625 -34.0625 C 20.640625 -26.46875 22.078125 -20.75 24.953125 -16.90625 C 27.835938 -13.070312 32.144531 -11.15625 37.875 -11.15625 C 49.363281 -11.15625 55.109375 -18.789062 55.109375 -34.0625 C 55.109375 -49.363281 49.394531 -57.015625 37.96875 -57.015625 C 32.238281 -57.015625 27.914062 -55.085938 25 -51.234375 C 22.09375 -47.378906 20.640625 -41.65625 20.640625 -34.0625 Z M 20.640625 -34.0625 "/></g></g><g transform="translate(606.60203, 189.979951)"><g><path d="M 22.953125 -37.78125 L 27.609375 -37.78125 C 32.160156 -37.78125 35.519531 -38.535156 37.6875 -40.046875 C 39.851562 -41.566406 40.9375 -43.957031 40.9375 -47.21875 C 40.9375 -50.4375 39.828125 -52.726562 37.609375 -54.09375 C 35.398438 -55.457031 31.972656 -56.140625 27.328125 -56.140625 L 22.953125 -56.140625 Z M 22.953125 -26.0625 L 22.953125 0 L 8.546875 0 L 8.546875 -67.9375 L 28.34375 -67.9375 C 37.582031 -67.9375 44.414062 -66.253906 48.84375 -62.890625 C 53.269531 -59.535156 55.484375 -54.4375 55.484375 -47.59375 C 55.484375 -43.59375 54.382812 -40.035156 52.1875 -36.921875 C 49.988281 -33.804688 46.875 -31.367188 42.84375 -29.609375 C 53.070312 -14.328125 59.734375 -4.457031 62.828125 0 L 46.84375 0 L 30.625 -26.0625 Z M 22.953125 -26.0625 "/></g></g><g transform="translate(669.428769, 189.979951)"><g><path d="M 34.765625 0 L 20.359375 0 L 20.359375 -55.953125 L 1.90625 -55.953125 L 1.90625 -67.9375 L 53.203125 -67.9375 L 53.203125 -55.953125 L 34.765625 -55.953125 Z M 34.765625 0 "/></g></g></g><g fill="#f66b0e" fill-opacity="1"><g transform="translate(116.868999, 209.775517)"><g><path d="M 7.785156 -24.601562 L 7.785156 0 L 112.113281 0 L 112.113281 -64.464844 L 32.386719 -64.464844 L 32.386719 -79.726562 L 112.113281 -79.726562 L 112.113281 -104.328125 L 7.785156 -104.328125 L 7.785156 -39.863281 L 87.511719 -39.863281 L 87.511719 -24.601562 Z M 7.785156 -24.601562 "/></g></g></g></svg>